<svg xmlns="http://www.w3.org/2000/svg" viewBox="0 0 100 100" width="100" height="100">
  <circle cx="50" cy="50" r="45" fill="#f4a261" />
  <circle cx="50" cy="40" r="20" fill="#e9c46a" />
  <!-- Hat -->
  <path d="M 20 25 Q 50 -10 80 25 L 85 30 L 15 30 Z" fill="#264653" />
  <rect x="10" y="30" width="80" height="5" fill="#2a9d8f" />
  <!-- Star -->
  <polygon points="50,60 55,75 70,75 57,85 62,100 50,90 38,100 43,85 30,75 45,75" fill="#e9c46a" transform="scale(0.4) translate(65, 80)"/>
  <!-- Eyes -->
  <circle cx="43" cy="38" r="3" fill="#2a9d8f" />
  <circle cx="57" cy="38" r="3" fill="#2a9d8f" />
  <!-- Moustache -->
  <path d="M 40 48 Q 50 45 60 48 Q 50 55 40 48" fill="#264653" />
</svg>
